<?xml version="1.0"?>
<svg xmlns="http://www.w3.org/2000/svg" id="filled_outline" data-name="filled outline" viewBox="0 0 512 512" width="512" height="512"><path d="M367.02954,152a16.97056,16.97056,0,0,0,11.99976-28.9707L336,80H320V208l19.0293,19.0293a16.9709,16.9709,0,0,0,12,4.9707h.00024a16.97056,16.97056,0,0,0,11.99976-28.9707l-16-16a16.9709,16.9709,0,0,0,12,4.9707h.00024a16.97056,16.97056,0,0,0,11.99976-28.9707l-16-16a16.9709,16.9709,0,0,0,12,4.9707Z" style="fill:#ffceb6"/><polygon points="224 128 248 56 328 24 400 24 400 120 328 120 328 128 224 128" style="fill:#ffceb6"/><rect x="216" y="128" width="112" height="160" style="fill:#ffc431"/><polygon points="256 320 160 320 144 336 160 352 256 352 256 320" style="fill:#ffb401"/><circle cx="272" cy="336" r="32" style="fill:#ffc431"/><path d="M280,88V198.05888a24,24,0,0,0,7.02943,16.97055l0,0a24,24,0,0,0,33.9411,0l0,0A24,24,0,0,0,328,198.05888V160l1.53694-1.53694A209.8887,209.8887,0,0,0,376,88l0,0Z" style="fill:#ffceb6"/><rect x="400" y="24" width="88" height="96" style="fill:#6173e8"/><path d="M152,376h0l35.13324-28.10659A17.76744,17.76744,0,0,1,198.2325,344h0A17.76748,17.76748,0,0,1,216,361.76748v0a23.46893,23.46893,0,0,1-3.09218,11.64382L184,424h56l56-24,19.2-25.6A16,16,0,0,1,328,368h0a16,16,0,0,1,16,16v0a33.8884,33.8884,0,0,1-3.57771,15.1554L320,440l-80,48H88V392h0l3.37836-1.68918A135.554,135.554,0,0,1,152,376Z" style="fill:#ffceb6"/><rect x="24" y="392" width="64" height="96" style="fill:#f78e00"/><path d="M488,16H328a7.99723,7.99723,0,0,0-2.9707.57227l-80,32a7.99879,7.99879,0,0,0-4.61914,4.89746L218.2334,120H216a8.00039,8.00039,0,0,0-8,8V288a8.00039,8.00039,0,0,0,8,8h48v.80493A40.07075,40.07075,0,0,0,240.022,312H160a8.00235,8.00235,0,0,0-5.65723,2.34277l-16,16a8.00122,8.00122,0,0,0,0,11.31446l16,16a8.00279,8.00279,0,0,0,4.89746,2.30517l-10.082,8.06592a144.34816,144.34816,0,0,0-61.3584,15.12695L86.11084,384H24a8.00039,8.00039,0,0,0-8,8v96a8.00039,8.00039,0,0,0,8,8H240a8.00777,8.00777,0,0,0,4.11621-1.13965l80-48a8.00241,8.00241,0,0,0,3.03906-3.2832l20.42188-40.84277A42.09334,42.09334,0,0,0,352,384a23.99984,23.99984,0,0,0-43.2002-14.39941l-17.917,23.88867L238.3584,416H197.78516l22.06933-38.61914A31.52579,31.52579,0,0,0,224,361.76758c0-.59473-.02759-1.18286-.06738-1.76758H240.022A39.99317,39.99317,0,1,0,280,296.80493V296h48a8.00039,8.00039,0,0,0,8-8V234.9707a24.96647,24.96647,0,0,0,33.14331-37.11889,24.9531,24.9531,0,0,0,8-40A24.98984,24.98984,0,0,0,390.99707,128H488a8.00039,8.00039,0,0,0,8-8V24A8.00039,8.00039,0,0,0,488,16ZM254.416,62.0498,329.541,32H392v80H373.69189a219.48068,219.48068,0,0,0,9.73584-21.0293l-14.85546-5.9414a200.762,200.762,0,0,1-44.69239,67.77636l-1.53711,1.53711A8.00235,8.00235,0,0,0,320,160v38.05859a16,16,0,0,1-32,0V88H272v32H235.09985Zm94.95605,90.63672,16,16a8.97,8.97,0,1,1-12.68555,12.68555l-3.02929-3.0293L336,164.68555v-1.376q6.00183-6.06372,11.46973-12.52539ZM32,400H80v80H32Zm173.96191-30.55762-28.9082,50.58887A8.0003,8.0003,0,0,0,184,432h56a8.0027,8.0027,0,0,0,3.15137-.64648l56-24a8.0065,8.0065,0,0,0,3.249-2.55372l19.2002-25.5996A7.99951,7.99951,0,0,1,336,384a26.012,26.012,0,0,1-2.7334,11.57715l-19.37988,38.76172L237.78418,480H96V396.9502A128.23025,128.23025,0,0,1,152,384a8.0027,8.0027,0,0,0,4.99805-1.75293l35.13281-28.10645A9.76721,9.76721,0,0,1,208,361.76758,15.48661,15.48661,0,0,1,205.96191,369.44238ZM216.86768,344a25.73389,25.73389,0,0,0-34.73291-2.35352L179.19287,344H163.31348l-8-8,8-8h69.49145a40.15747,40.15747,0,0,0,0,16ZM296,336a24,24,0,1,1-32-22.62378V328a8,8,0,0,0,16,0V313.37622A24.0384,24.0384,0,0,1,296,336Zm-16-56V256a8,8,0,0,0-16,0v24H224V136h48v62.05859A32.0168,32.0168,0,0,0,320,225.769V280Zm71.0293-56a8.9108,8.9108,0,0,1-6.34278-2.62793L336,212.68555v-25.3711l2.34277,2.34278,3.0293,3.02929,16,16A8.97,8.97,0,0,1,351.0293,224Zm22.34277-95.31348a8.97,8.97,0,1,1-12.68555,12.68555l-3.02929-3.0293-.22974-.22973q3.60389-4.95668,6.9104-10.113h8.34766ZM480,112H408V32h72Z"/></svg>
