<?xml version="1.0"?>
<svg xmlns="http://www.w3.org/2000/svg" id="Layer_1" data-name="Layer 1" viewBox="0 0 512 512" width="512" height="512"><title>check mark</title><path d="M251.92,44.47V64.6a36.383,36.383,0,0,1-36.38,36.38H150.46A36.383,36.383,0,0,1,114.08,64.6V44.47h31.99c3.65-16.64,18.79-29.12,36.93-29.12s33.28,12.48,36.93,29.12Z" style="fill:#f8ec7d"/><path d="M337.23,409.17l-42.67,13.84-.06-.2H69.38A36.383,36.383,0,0,1,33,386.43V80.85A36.383,36.383,0,0,1,69.38,44.47h44.7V64.6a36.383,36.383,0,0,0,36.38,36.38h65.08A36.383,36.383,0,0,0,251.92,64.6V44.47h44.7A36.383,36.383,0,0,1,333,80.85V191.67a71.3,71.3,0,0,0-35.23,61.48v36.24a13.448,13.448,0,0,0-12,10.26,18.217,18.217,0,0,0-.51,4.27,17.92,17.92,0,0,0,14.8,17.64v.1l3.69,12.69a66.46,66.46,0,0,0,33.56,46.09v28.71Z" style="fill:#6fe3ff"/><path d="M479,460.88v35.77H259V460.88a35.106,35.106,0,0,1,.85-7.99c.11-.48.23-.94.36-1.41a37.3,37.3,0,0,1,24.64-25.32l9.71-3.15,42.67-13.84a66.735,66.735,0,0,0,63.54,0l52.38,16.99a37.3,37.3,0,0,1,24.64,25.32c.13.47.25.93.36,1.41A35.106,35.106,0,0,1,479,460.88Z" style="fill:#e48e66"/><path d="M400.69,380.44a66.4,66.4,0,0,1-96.94-46.09l-3.69-12.69v-.1a17.92,17.92,0,0,1-14.8-17.64,18.217,18.217,0,0,1,.51-4.27,13.448,13.448,0,0,1,12-10.26v.41a9.467,9.467,0,0,0,4.83,1.34,9.563,9.563,0,0,0,9.56-9.13l1.18-25.87a215.293,215.293,0,0,0,25.21-.64c40.83,36.39,101.71,34.05,101.71,34.05v-.16a13.448,13.448,0,0,1,11.97,10.26,18.217,18.217,0,0,1,.51,4.27,17.921,17.921,0,0,1-14.8,17.64v.1l-3.69,12.69A66.379,66.379,0,0,1,400.69,380.44Z" style="fill:#f7caa5"/><path d="M440.26,289.39v.16s-60.88,2.34-101.71-34.05a210.273,210.273,0,0,0,38.26-6.41s20.09,25.85,63.45,28.64Z" style="fill:#494f4f"/><path d="M376.81,249.09a210.273,210.273,0,0,1-38.26,6.41,215.293,215.293,0,0,1-25.21.64l-1.18,25.87a9.563,9.563,0,0,1-9.56,9.13,9.467,9.467,0,0,1-4.83-1.34V253.15a71.245,71.245,0,1,1,142.49,0v24.58C396.9,274.94,376.81,249.09,376.81,249.09Z" style="fill:#5f6768"/><path d="M400.69,409.15l.08.02a66.735,66.735,0,0,1-63.54,0l.08-.02V380.44a66.474,66.474,0,0,0,63.38,0Z" style="fill:#edb288"/><path d="M165.67,293.46a6.98,6.98,0,0,1-4.89-1.991l-43.23-42.21a7,7,0,0,1,9.78-10.018l38.34,37.436,73-71.266a7,7,0,0,1,9.78,10.018l-77.89,76.04A6.982,6.982,0,0,1,165.67,293.46Z" style="fill:#2561a1"/></svg>
