<svg height="480pt" viewBox="0 0 480.14516 480" width="480pt" xmlns="http://www.w3.org/2000/svg"><path d="m96.144531 232.195312h288v240h-288zm0 0" fill="#c49a6c"/><path d="m472.144531 472.195312h-136c0-17.671874 14.328125-32 32-32 .402344 0 .800781.082032 1.199219.082032-.765625-2.625-1.171875-5.34375-1.199219-8.082032 0-17.671874 14.328125-32 32-32s32 14.328126 32 32c22.09375 0 40 17.910157 40 40zm0 0" fill="#00ccb3"/><path d="m144.144531 472.195312h-48v-49.679687c3 2.660156 5.261719 6.050781 6.5625 9.839844.476563 0 .957031-.160157 1.4375-.160157 2.6875-.019531 5.371094.25 8 .800782 18.628907 3.804687 32.003907 20.191406 32 39.199218zm0 0" fill="#a97c50"/><path d="m288.144531 280.195312v16h-48v-24h40c4.417969 0 8 3.582032 8 8zm0 0" fill="#d1d3d4"/><path d="m192.144531 296.195312h48v24h-40c-4.417969 0-8-3.578124-8-8zm0 0" fill="#d1d3d4"/><g fill="#e6e7e8"><path d="m312.144531 360.195312h48v48h-48zm0 0"/><path d="m120.144531 360.195312h48v48h-48zm0 0"/><path d="m288.144531 296.195312v16c0 4.421876-3.582031 8-8 8h-40v-24zm0 0"/><path d="m200.144531 272.195312h40v24h-48v-16c0-4.417968 3.582031-8 8-8zm0 0"/></g><path d="m72.144531 208.195312c12.664063 5.320313 26.265625 8.039063 40 8l-44 44c-6.625 6.628907-17.371093 6.628907-24 0-6.625-6.625-6.625-17.371093 0-24zm0 0" fill="#ff6243"/><path d="m384.144531 72.195312v112l-64-64v-48zm0 0" fill="#c49a6c"/><path d="m384.144531 72.195312h-72c-4.417969 0-8-3.578124-8-8v-16c0-4.417968 3.582031-8 8-8h80c4.417969 0 8 3.582032 8 8v16c0 4.421876-3.582031 8-8 8zm0 0" fill="#ff6243"/><path d="m436.144531 236.195312c6.628907 6.628907 6.628907 17.375 0 24-6.625 6.628907-17.371093 6.628907-24 0l-160.71875-160.71875c-2.988281-2.996093-7.046875-4.679687-11.28125-4.679687-4.230469 0-8.289062 1.683594-11.28125 4.679687l-12.71875 12.71875c0-13.730468-2.71875-27.324218-8-40l20.71875-20.71875c2.992188-2.996093 7.050781-4.679687 11.28125-4.679687 4.234375 0 8.292969 1.683594 11.28125 4.679687zm0 0" fill="#ff6243"/><path d="m192.144531 344.195312h96v128h-96zm0 0" fill="#8b5e3c"/><path d="m112.144531 216.195312c57.4375 0 104-46.5625 104-104l12.71875-12.71875c2.992188-2.996093 7.050781-4.679687 11.28125-4.679687 4.234375 0 8.292969 1.683594 11.28125 4.679687l132.71875 132.71875h-288zm0 0" fill="#ffc477"/><path d="m244.863281 99.476562c.964844-.988281 2.070313-1.824218 3.28125-2.480468-6.242187-3.652344-14.164062-2.632813-19.28125 2.480468l-132.71875 132.71875h16zm0 0" fill="#ffb655"/><path d="m95.839844 232.507812.617187 15.992188 15.375-16.605469zm0 0" fill="#a97c50"/><path d="m208.144531 72.195312c13.375 32.097657 9.824219 68.757813-9.464843 97.691407-19.289063 28.933593-51.761719 46.308593-86.535157 46.308593-13.734375.039063-27.335937-2.679687-40-8-43.398437-18.082031-69.269531-63.035156-63.101562-109.644531 6.171875-46.609375 42.84375-83.285156 89.457031-89.453125 46.609375-6.171875 91.5625 19.699219 109.644531 63.097656zm0 0" fill="#ffd422"/><path d="m232.144531 112.195312c0 57.4375-46.5625 104-104 104-2.800781 0-5.519531-.078124-8.238281-.316406 54.277344-4.03125 96.253906-49.253906 96.238281-103.683594l12.71875-12.71875c.671875-.703124 1.421875-1.320312 2.242188-1.839843.710937 4.820312 1.058593 9.6875 1.039062 14.558593zm0 0" fill="#ffb655"/><path d="m120.144531 360.195312h16v48h-16zm0 0" fill="#d1d3d4"/><path d="m312.144531 360.195312h16v48h-16zm0 0" fill="#d1d3d4"/><path d="m192.144531 344.195312h16v128h-16zm0 0" fill="#754c29"/><path d="m128.144531 472.195312h-120c0-13.253906 10.746094-24 24-24 3.671875.023438 7.289063.898438 10.5625 2.5625-1.664062-3.273437-2.539062-6.890624-2.5625-10.5625-.035156-11.707031 8.410157-21.722656 19.957031-23.667968 11.546876-1.941406 22.800782 4.753906 26.605469 15.828125.476563 0 .957031-.160157 1.4375-.160157 2.6875-.019531 5.371094.25 8 .800782 18.628907 3.804687 32.003907 20.191406 32 39.199218zm0 0" fill="#00ccb3"/><path d="m384.144531 168.195312v16l-64-64v-16zm0 0" fill="#a97c50"/><path d="m192.144531 344.195312h96v8h-96zm0 0" fill="#754c29"/><path d="m168.144531 352.195312h-48c-4.417969 0-8 3.582032-8 8v48c0 4.421876 3.582031 8 8 8h48c4.417969 0 8-3.578124 8-8v-48c0-4.417968-3.582031-8-8-8zm-8 48h-32v-32h32zm0 0"/><path d="m280.144531 264.195312h-80c-8.835937 0-16 7.164063-16 16v32c0 8.839844 7.164063 16 16 16h80c8.835938 0 16-7.160156 16-16v-32c0-8.835937-7.164062-16-16-16zm0 24h-32v-8h32zm-48-8v8h-32v-8zm-32 24h32v8h-32zm48 8v-8h32v8zm0 0"/><path d="m439.449219 424.75c-1.992188-10.523438-8.117188-19.804688-17.007813-25.773438s-19.804687-8.121093-30.296875-5.980468v-141.488282l14.34375 14.34375c9.753907 9.753907 25.5625 9.753907 35.3125 0 9.75-9.75 9.75-25.558593 0-35.3125l-49.65625-49.652343v-100.691407c8.835938 0 16-7.160156 16-16v-16c0-8.835937-7.164062-16-16-16h-80c-8.835937 0-16 7.164063-16 16v16c0 8.839844 7.164063 16 16 16v20.691407l-55.0625-55.089844c-9.367187-9.328125-24.507812-9.328125-33.871093 0l-12.800782 12.800781c-22.820312-41.996094-69.777344-64.882812-116.914062-56.984375-47.140625 7.894531-84.074219 44.835938-91.960938 91.976563-7.886718 47.140625 15.007813 94.089844 57.011719 116.902344l-20.058594 20.046874c-9.75 9.753907-9.75 25.5625 0 35.3125 9.753907 9.753907 25.5625 9.753907 35.3125 0l14.34375-14.34375v167.746094c-8.710937-10.109375-22.800781-13.71875-35.296875-9.042968-12.5 4.675781-20.761718 16.640624-20.703125 29.984374-17.671875 0-32 14.328126-32 32 0 4.421876 3.582031 8 8 8h464c4.417969 0 8-3.578124 8-8-.03125-23.679687-17.296875-43.808593-40.695312-47.445312zm-71.367188-16.226562c0-.109376.0625-.207032.0625-.328126v-48c0-4.417968-3.582031-8-8-8h-48c-4.417969 0-8 3.582032-8 8v48c0 4.421876 3.582031 8 8 8h48c1.457031-.035156 2.875-.480468 4.089844-1.285156-2.660156 5.375-4.058594 11.289063-4.089844 17.285156v.800782c-15.675781 3.246094-27.914062 15.515625-31.121093 31.199218h-32.878907v-120c0-4.417968-3.582031-8-8-8h-96c-4.417969 0-8 3.582032-8 8v120h-48.710937c-2.929688-17.148437-14.894532-31.378906-31.289063-37.214843v-186.785157h272v160.210938c-3.0625 2.304688-5.777343 5.039062-8.0625 8.117188zm-15.9375-40.328126v32h-32v-32zm-40-320h80v16h-80zm16 32h48v84.691407l-48-48zm-93.597656-23.0625c3.113281-3.082031 8.128906-3.082031 11.246094 0l184.71875 184.71875c3.5 3.507813 3.5 9.183594 0 12.6875-3.507813 3.488282-9.175781 3.488282-12.6875 0l-160.742188-160.742187c-9.367187-9.328125-24.507812-9.328125-33.871093 0l-.609376.609375c-1.105468-6.871094-2.847656-13.625-5.207031-20.167969zm-218.402344 55.0625c0-53.019531 42.980469-96 96-96s96 42.980469 96 96c0 53.019532-42.980469 96-96 96-52.996093-.054687-95.941406-43.003906-96-96zm46.34375 142.34375c-3.503906 3.5-9.179687 3.5-12.6875 0-3.488281-3.507812-3.488281-9.175781 0-12.6875l24.410157-24.40625c6.542968 2.359376 13.296874 4.105469 20.167968 5.207032l-3.882812 3.878906zm53.144531-30.519531c59.027344-1.898437 106.433594-49.308593 108.335938-108.335937l10.578125-10.550782c3.113281-3.082031 8.128906-3.082031 11.246094 0l119.039062 119.0625h-249.375zm-97.335937 240.175781c4.207031-7.230468 13.289063-9.976562 20.800781-6.292968 3.070313 1.515625 6.769532.90625 9.191406-1.515625 2.425782-2.417969 3.039063-6.113281 1.527344-9.191407-1.089844-2.171874-1.660156-4.566406-1.671875-7-.023437-7.800781 5.605469-14.472656 13.296875-15.769531 7.695313-1.292969 15.195313 3.167969 17.726563 10.546875 1.09375 3.375 4.332031 5.582032 7.875 5.359375.371093.007813.742187-.039062 1.101562-.136719 14.585938.019532 27.320313 9.882813 30.984375 24zm181.847656 0v-112h80v112zm145.367188 0c3.285156-9.453124 12.128906-15.847656 22.136719-16 .273437 0 1.082031.121094 1.351562.128907 2.539062.101562 4.96875-1.007813 6.558594-2.988281 1.585937-1.980469 2.140625-4.597657 1.492187-7.050782-.566406-1.980468-.871093-4.027344-.90625-6.089844 0-13.253906 10.746094-24 24-24 13.253907 0 24 10.746094 24 24 0 4.421876 3.582031 8 8 8 14.585938.019532 27.320313 9.882813 30.984375 24zm0 0"/><path d="m120.144531 184.195312v-16c13.253907 0 24-10.742187 24-24v-16c0-13.253906-10.746093-24-24-24h-16c-4.417969 0-8-3.578124-8-8v-16c0-4.417968 3.582031-8 8-8h16c4.417969 0 8 3.582032 8 8v8h16v-8c0-13.253906-10.746093-24-24-24v-16h-16v16c-13.253906 0-24 10.746094-24 24v16c0 13.257813 10.746094 24 24 24h16c4.417969 0 8 3.582032 8 8v16c0 4.421876-3.582031 8-8 8h-16c-4.417969 0-8-3.578124-8-8v-8h-16v8c0 13.257813 10.746094 24 24 24v16zm0 0"/><path d="m224.144531 376.195312h-16v16h8v16h-8v16h16c4.417969 0 8-3.578124 8-8v-32c0-4.417968-3.582031-8-8-8zm0 0"/></svg>
