<svg height="512pt" viewBox="-43 0 512 512.00839" width="512pt" xmlns="http://www.w3.org/2000/svg"><path d="m407.421875 333.492188c-2.238281 14.550781-6.101563 28.804687-11.519531 42.496093h-373.421875c-5.417969-13.691406-9.28125-27.945312-11.519531-42.496093zm0 0" fill="#f3d55b"/><path d="m395.902344 375.988281c-5.792969 15.078125-13.476563 29.355469-22.871094 42.496094h-327.679688c-9.394531-13.140625-17.078124-27.417969-22.871093-42.496094zm0 0" fill="#f0c419"/><path d="m373.03125 418.484375c-11.261719 16.121094-24.898438 30.449219-40.449219 42.496094h-246.78125c-15.550781-12.046875-29.1875-26.375-40.449219-42.496094zm0 0" fill="#f29c1f"/><path d="m332.582031 460.980469c-72.503906 56.660156-174.277343 56.660156-246.78125 0zm0 0" fill="#e57e25"/><path d="m409.726562 302.941406c.011719 10.226563-.757812 20.441406-2.304687 30.550782h-396.460937c-11.371094-74.386719 19.855468-148.878907 80.875-192.917969 61.019531-44.039063 141.558593-50.210938 208.570312-15.980469 67.015625 34.230469 109.230469 103.097656 109.320312 178.347656zm0 0" fill="#ff5364"/><path d="m209.191406 512.007812c-115.203125.078126-208.726562-93.113281-209.066406-208.316406-.0546875-40.277344 11.671875-79.695312 33.742188-113.390625 1.089843-1.765625 2.378906-3.632812 3.660156-5.496093l1.277344-1.859376c1.71875-2.519531 4.648437-3.933593 7.691406-3.707031 3.039062.222657 5.730468 2.054688 7.054687 4.800781 1.328125 2.75 1.085938 5.996094-.628906 8.515626l-1.351563 1.953124c-1.132812 1.640626-2.277343 3.292969-3.335937 4.984376-20.296875 30.960937-31.085937 67.179687-31.042969 104.199218 0 106.039063 85.960938 192 192 192 106.039063 0 192-85.960937 192-192 .03125-20.054687-3.140625-39.988281-9.386718-59.050781-1.472657-4.476563.960937-9.300781 5.441406-10.773437 4.476562-1.472657 9.300781.964843 10.773437 5.441406 6.808594 20.78125 10.265625 42.515625 10.238281 64.382812-.339843 115.203125-93.863281 208.394532-209.066406 208.316406zm0 0" fill="#fb7b76"/><path d="m162.257812 341.339844c-.257812 0-.519531 0-.777343 0-2.265625-.195313-4.355469-1.289063-5.8125-3.035156-1.457031-1.746094-2.15625-4-1.941407-6.265626.082032-.921874 8.019532-92.449218-16.410156-149.46875-8.441406-19.6875-16.085937-34.988281-22.230468-47.273437-12.6875-25.4375-21.09375-42.273437-21.09375-67.023437 0-4.710938 3.820312-8.53125 8.53125-8.53125 4.714843 0 8.535156 3.820312 8.535156 8.53125 0 20.746093 6.824218 34.476562 19.328125 59.394531 6.246093 12.492187 14.019531 28.039062 22.648437 48.179687 26.144532 61.011719 18.082032 153.8125 17.757813 157.730469-.398438 4.410156-4.105469 7.78125-8.535157 7.761719zm0 0" fill="#804537"/><path d="m329.425781 332.808594c2.304688-5.394532 3.492188-11.199219 3.5-17.066406 0-23.566407-19.105469-42.667969-42.667969-42.667969s-42.667968 19.101562-42.667968 42.667969c.007812 5.867187 1.195312 11.671874 3.5 17.066406" fill="#955ba5"/><g fill="#24ae5f"><path d="m34.257812 162.140625c-.316406 0-.632812-.015625-.945312-.050781-4.671875-.519532-8.042969-4.714844-7.546875-9.386719 9.167969-82.457031 74.890625-92.78125 75.546875-92.875 4.617188-.589844 8.855469 2.632813 9.523438 7.238281.667968 4.609375-2.480469 8.902344-7.074219 9.648438-2.304688.359375-53.375 9.011718-61.023438 77.832031-.476562 4.324219-4.128906 7.59375-8.480469 7.59375zm0 0"/><path d="m17.191406 110.941406c-.628906 0-1.253906-.070312-1.867187-.203125-4.589844-1.03125-7.480469-5.582031-6.460938-10.171875.339844-1.570312 8.753907-38.070312 37.339844-50.039062 17.484375-7.324219 37.984375-3.800782 60.871094 10.511718 4.003906 2.496094 5.226562 7.769532 2.730469 11.777344-2.5 4.003906-7.769532 5.226563-11.777344 2.730469-17.917969-11.179687-33.066406-14.3125-45.167969-9.269531-20.402344 8.535156-27.253906 37.742187-27.304687 38.035156-.890626 3.894531-4.367188 6.648438-8.363282 6.628906zm0 0"/><path d="m187.859375 128.007812c-3.554687 0-6.734375-2.195312-7.988281-5.519531-.9375-2.484375-23.671875-60.679687-75-46.011719-4.472656 1.136719-9.039063-1.484374-10.3125-5.921874-1.269532-4.4375 1.222656-9.082032 5.621094-10.480469 53.238281-15.222657 85.859374 30.242187 95.675781 56.40625.980469 2.621093.613281 5.558593-.980469 7.859375-1.59375 2.296875-4.21875 3.671875-7.015625 3.667968zm0 0"/><path d="m102.523438 76.808594c-1.480469.003906-2.9375-.386719-4.222657-1.125-1.976562-1.125-3.421875-2.984375-4.019531-5.175782-.597656-2.191406-.296875-4.53125.835938-6.5 8.164062-16.699218 23.605468-28.675781 41.8125-32.425781 32.660156-5.699219 63.71875 20.554688 65.023437 21.675781 3.4375 3.097657 3.78125 8.371094.773437 11.886719-3.011718 3.515625-8.273437 3.992188-11.863281 1.074219-.265625-.214844-26.371093-22.117188-51.074219-17.816406-13.117187 3.039062-24.121093 11.917968-29.867187 24.097656-1.515625 2.660156-4.335937 4.300781-7.398437 4.308594zm0 0"/><path d="m102.523438 76.808594c-2.855469.003906-5.523438-1.421875-7.105469-3.796875-29.867188-44.773438-81.238281-23.417969-83.40625-22.496094-2.8125 1.253906-6.078125.898437-8.550781-.933594-2.476563-1.832031-3.769532-4.855469-3.3906255-7.910156s2.3710935-5.667969 5.2187495-6.839844c22.925782-9.820312 74.195313-16.453125 104.335938 28.707031 1.746094 2.617188 1.910156 5.984376.425781 8.761719-1.484375 2.777344-4.378906 4.507813-7.527343 4.507813zm0 0"/><path d="m102.523438 76.808594c-4.050782-.003906-7.542969-2.855469-8.351563-6.828125-.222656-1.074219-.402344-2.21875-.554687-3.414063-8.519532-48.492187-49.121094-49.492187-50.867188-49.492187-4.714844-.011719-8.523438-3.839844-8.511719-8.554688.011719-4.710937 3.839844-8.52343725 8.554688-8.5117185 22.808593 1.1992185 43.667969 13.2226565 56.140625 32.3593755 6.859375-14.738282 19.285156-26.15625 34.550781-31.753907 4.378906-1.753906 9.347656.375 11.101563 4.753907 1.753906 4.378906-.375 9.347656-4.753907 11.101562-19.976562 7.203125-32.160156 27.433594-29.183593 48.460938.109374.707031.222656 1.417968.324218 2.132812.65625 4.578125-2.449218 8.847656-7.007812 9.625-.472656.082031-.957032.121094-1.441406.121094zm0 0"/><path d="m323.582031 143.921875c-1.570312-.003906-3.101562-.464844-4.414062-1.320313l-.289063-.1875c-.949218-.359374-1.820312-.898437-2.558594-1.589843-3.765624-2.566407-4.847656-7.636719-2.460937-11.515625 2.382813-3.878906 7.394531-5.203125 11.386719-3.007813l1.277344.769531c.199218.109376.390624.234376.574218.367188.308594.179688.613282.375.902344.589844 3.980469 2.601562 5.160156 7.898437 2.664062 11.945312-1.546874 2.425782-4.207031 3.910156-7.082031 3.949219zm0 0"/><path d="m358.449219 247.304688c-.625.003906-1.246094-.066407-1.851563-.207032-4.601562-1.019531-7.503906-5.570312-6.488281-10.167968 15.003906-67.6875-30.667969-92.382813-32.613281-93.398438-2.714844-1.390625-4.480469-4.125-4.632813-7.167969-.152343-3.042969 1.332031-5.941406 3.894531-7.59375 2.558594-1.65625 5.808594-1.820312 8.519532-.429687.597656.308594 59.445312 31.328125 41.492187 112.273437-.867187 3.90625-4.324219 6.683594-8.320312 6.691407zm0 0"/><path d="m391.128906 204.382812c-.316406 0-.636718-.019531-.953125-.0625-4.671875-.515624-8.042969-4.714843-7.542969-9.386718 0-.296875 3.011719-30.179688-13.550781-44.824219-9.796875-8.660156-25.175781-10.613281-45.742187-5.835937-4.527344.921874-8.964844-1.921876-10.015625-6.421876s1.675781-9.019531 6.144531-10.191406c26.289062-6.136718 46.8125-2.851562 60.996094 9.734375 23.160156 20.566407 19.308594 57.832031 19.128906 59.410157-.484375 4.308593-4.125 7.570312-8.464844 7.578124zm0 0"/><path d="m224.097656 165.332031c-3.300781.003907-6.308594-1.902343-7.71875-4.890625-1.410156-2.988281-.96875-6.519531 1.132813-9.070312 17.75-21.585938 63.332031-54.046875 108.765625-22.425782 2.625 1.691407 4.121094 4.679688 3.894531 7.792969-.222656 3.113281-2.128906 5.855469-4.972656 7.152344-2.839844 1.292969-6.160157.933594-8.660157-.941406-44.039062-30.609375-84.152343 17.210937-85.84375 19.269531-1.621093 1.972656-4.042968 3.117188-6.597656 3.113281zm0 0"/><path d="m321.394531 144.484375c-4.089843-.003906-7.601562-2.910156-8.371093-6.925781-1.480469-13.394532-9.03125-25.367188-20.480469-32.480469-22.117188-12.117187-53.699219.230469-54.015625.359375-4.285156 1.414062-8.933594-.753906-10.601563-4.949219-1.667969-4.195312.21875-8.964843 4.304688-10.878906 1.597656-.648437 39.457031-15.421875 68.539062.519531 16.011719 9.449219 26.742188 25.78125 29.058594 44.226563.425781 2.222656-.046875 4.527343-1.316406 6.398437-1.269531 1.875-3.230469 3.167969-5.453125 3.597656-.546875.097657-1.105469.140626-1.664063.132813zm0 0"/><path d="m418.503906 150.613281c-2.097656 0-4.125-.773437-5.691406-2.175781-1.765625-1.578125-43.707031-38.253906-86.183594-5.710938-2.421875 1.855469-5.648437 2.277344-8.464844 1.105469-2.816406-1.167969-4.792968-3.75-5.1875-6.773437-.394531-3.023438.851563-6.027344 3.273438-7.882813 43.09375-33.015625 89.5-10.136719 108.015625 6.574219 2.621094 2.367188 3.511719 6.101562 2.242187 9.398438-1.269531 3.292968-4.4375 5.46875-7.96875 5.464843zm0 0"/><path d="m321.394531 144.484375c-2.964843 0-5.71875-1.546875-7.269531-4.078125-1.546875-2.53125-1.671875-5.683594-.324219-8.328125.34375-.664063.683594-1.3125 1.023438-1.953125 9.601562-18.929688 4.613281-41.996094-11.945313-55.269531-2.507812-1.925781-3.746094-5.074219-3.21875-8.191407.527344-3.113281 2.730469-5.683593 5.726563-6.679687 3-.992187 6.300781-.25 8.585937 1.933594 12.632813 10.230469 20.695313 25.050781 22.425782 41.214843 17.988281-14.074218 41.621093-18.707031 63.589843-12.457031 4.460938 1.515625 6.851563 6.359375 5.335938 10.824219-1.515625 4.460938-6.359375 6.851562-10.824219 5.335938-1.707031-.554688-40.402344-12.738282-64.109375 30.335937-.53125 1.101563-1.085937 2.125-1.628906 3.074219-1.527344 2.621094-4.332031 4.234375-7.367188 4.238281zm0 0"/></g><path d="m189.566406 341.339844c-2.75 0-5.328125-1.324219-6.933594-3.558594-1.601562-2.230469-2.027343-5.101562-1.148437-7.703125 11.09375-32.9375 30.105469-78.507813 57.292969-108.714844 14.683594-16.214843 27.066406-28.398437 37.007812-38.179687 19.890625-19.546875 30.847656-30.316406 37.546875-49.988282.980469-2.886718 3.429688-5.03125 6.421875-5.625 2.988282-.589843 6.070313.457032 8.078125 2.75 2.011719 2.292969 2.644531 5.484376 1.664063 8.371094-8.007813 23.5-21.429688 36.695313-41.738282 56.660156-9.789062 9.628907-21.964843 21.601563-36.300781 37.453126-25.234375 27.992187-43.179687 71.324218-53.761719 102.734374-1.175781 3.484376-4.453124 5.824219-8.128906 5.800782zm0 0" fill="#804537"/></svg>
