<svg xmlns="http://www.w3.org/2000/svg" width="396" height="65.849" viewBox="0 0 396 65.849">
  <g id="re_trip" transform="translate(1054.5 -1800.5)">
    <g id="Group_3" data-name="Group 3" transform="translate(-1054.5 1800.5)">
      <g id="Group_2" data-name="Group 2" transform="translate(0 0)">
        <circle id="Ellipse_2" data-name="Ellipse 2" cx="31.071" cy="31.071" r="31.071" fill="#bafff5"/>
        <path id="Path_3" data-name="Path 3" d="M106.133,98.4l3.745-4.092h-8.323a25.95,25.95,0,0,0-29.233,0H64L67.745,98.4A11.343,11.343,0,0,0,64,106.861a11.485,11.485,0,0,0,19.281,8.427l3.676,3.988,3.676-3.988a11.485,11.485,0,0,0,19.281-8.427A11.7,11.7,0,0,0,106.133,98.4Zm-30.69,16.229a7.768,7.768,0,1,1,7.768-7.768A7.755,7.755,0,0,1,75.444,114.629Zm11.478-7.976c0-5.1-3.71-9.5-8.635-11.374a22.141,22.141,0,0,1,8.6-1.734,22.444,22.444,0,0,1,8.635,1.734C90.632,97.152,86.922,101.521,86.922,106.653ZM98.4,114.629a7.768,7.768,0,1,1,7.768-7.768A7.755,7.755,0,0,1,98.4,114.629Zm0-11.825a4.057,4.057,0,1,0,4.057,4.057A4.062,4.062,0,0,0,98.4,102.8Zm-18.865,4.057a4.057,4.057,0,1,1-4.057-4.057A4.062,4.062,0,0,1,79.536,106.861Z" transform="translate(-55.851 -73.398)"/>
        <g id="Group_1" data-name="Group 1" transform="translate(82.949 13.94)">
          <path id="Path_4" data-name="Path 4" d="M285.8,132.969l8.5.659.035-.035a24.633,24.633,0,0,0,2.878.139l29.58.451v.069l14.426.312v-.035l13.177.312c2.67,0,4.924-.971,5.583-2.323a1.8,1.8,0,0,0,.173-1.11c-.277-1.56-2.74-2.809-5.722-2.809l-13.177.312v-.035l-14.426.277v.069l-29.58.451a21.393,21.393,0,0,0-3.121.173l-.1-.069-8.184.9C285.835,133.039,285.8,129.918,285.8,132.969Z" transform="translate(-283.685 -112.683)" fill="#f9af46" fill-rule="evenodd"/>
          <path id="Path_5" data-name="Path 5" d="M390.3,93.485l-4.161-4.057h.035l-1.907-1.838h0l-5.028-4.89H368.9l12.172,15.882v.694l14.426-.312v-.381L392.2,95.357h.035l-1.907-1.873Z" transform="translate(-337.968 -82.7)" fill="#21a58d" fill-rule="evenodd"/>
          <path id="Path_6" data-name="Path 6" d="M395.467,145.112l-14.461-.312v.555L368.8,162.347h10.369l3.745-3.919h.035l1.838-1.838h-.1l4.785-4.994h.069l1.769-1.838h-.069l4.2-4.4Z" transform="translate(-337.902 -123.265)" fill="#21a58d" fill-rule="evenodd"/>
          <path id="Path_7" data-name="Path 7" d="M284.832,116.159,279.7,115.5l2.115,6.623v.035l8.323-.832Z" transform="translate(-279.7 -104.126)" fill="#21a58d" fill-rule="evenodd"/>
          <path id="Path_8" data-name="Path 8" d="M281.815,141.269l-2.115,7,5.1-.659,5.583-5.756-8.565-.659Z" transform="translate(-279.7 -120.914)" fill="#21a58d" fill-rule="evenodd"/>
          <path id="Path_9" data-name="Path 9" d="M417.225,180.573c.936,0,1.7-.416,1.7-.936s-.763-.936-1.7-.936h-5.791l-1.734,1.838Z" transform="translate(-364.619 -145.41)" fill="#f9af46" fill-rule="evenodd"/>
          <path id="Path_10" data-name="Path 10" d="M436.272,159.1H430.2l-1.8,1.873h7.872c.936,0,1.7-.416,1.7-.936S437.208,159.1,436.272,159.1Z" transform="translate(-376.834 -132.606)" fill="#f9af46" fill-rule="evenodd"/>
          <path id="Path_11" data-name="Path 11" d="M437.709,113.8H430.6l1.907,1.838h5.2c.936,0,1.7-.416,1.7-.936C439.408,114.216,438.645,113.835,437.709,113.8Z" transform="translate(-378.272 -103.015)" fill="#f9af46" fill-rule="evenodd"/>
          <path id="Path_12" data-name="Path 12" d="M420.69,98.573c.936,0,1.734-.416,1.7-.936,0-.52-.763-.936-1.7-.936H413.2l1.907,1.873Z" transform="translate(-366.905 -91.845)" fill="#f9af46" fill-rule="evenodd"/>
        </g>
      </g>
      <text id="TRIPadvis" transform="translate(70.589 53.849)" fill="#f9af46" font-size="58" font-family="ArialMT, Arial"><tspan x="0" y="0">T</tspan><tspan y="0" fill="#000">RI</tspan><tspan y="0" fill="#21a58d">P</tspan><tspan y="0" fill="#10bafc">a</tspan><tspan y="0" fill="#000">dvis</tspan></text>
      <g id="beach-ball-ball-svgrepo-com" transform="translate(339.307 21.032)">
        <circle id="Ellipse_3" data-name="Ellipse 3" cx="15.691" cy="15.691" r="15.691" transform="translate(0.668 0.668)" fill="#fff"/>
        <ellipse id="Ellipse_4" data-name="Ellipse 4" cx="4.946" cy="4.311" rx="4.946" ry="4.311" transform="translate(12.776 5.326)" fill="#f3437f"/>
        <path id="Path_13" data-name="Path 13" d="M24.263,96.291a4.094,4.094,0,0,1-1.706-3.256,3.79,3.79,0,0,1,.069-.714,8.505,8.505,0,0,0-6.4-3.229,7.279,7.279,0,0,0-1.805.228A15.692,15.692,0,0,0,22.412,115l.05-.054a13.437,13.437,0,0,1-2.81-8.482C19.651,102.058,21.519,98.229,24.263,96.291Z" transform="translate(-9.781 -83.399)" fill="#10bafc"/>
        <path id="Path_14" data-name="Path 14" d="M326.453,60.466a8.088,8.088,0,0,0-5.33,2.219,4.183,4.183,0,0,1,2.147,3.554,3.955,3.955,0,0,1-1.04,2.643c3.291,1.642,5.633,5.852,5.633,10.787a14.509,14.509,0,0,1-1.057,5.51,15.691,15.691,0,0,0-.354-24.713Z" transform="translate(-300.603 -56.602)" fill="#ffd41d"/>
        <path id="Path_15" data-name="Path 15" d="M57.935,219.65a.668.668,0,0,1-.623-.429,12.7,12.7,0,0,1-.844-4.57,12.872,12.872,0,0,1,.2-2.273.668.668,0,0,1,1.314.237,11.527,11.527,0,0,0-.181,2.037,11.368,11.368,0,0,0,.755,4.091.668.668,0,0,1-.623.907Z" transform="translate(-52.86 -198.293)"/>
        <path id="Path_16" data-name="Path 16" d="M69.546,179.129a.668.668,0,0,1-.622-.91l0-.007a.668.668,0,0,1,1.25.469l-.009.024A.668.668,0,0,1,69.546,179.129Z" transform="translate(-64.477 -166.418)"/>
        <path id="Path_17" data-name="Path 17" d="M27.926,4.791A16.359,16.359,0,1,0,4.791,27.926,16.359,16.359,0,1,0,27.926,4.791ZM24.007,3.433a9.1,9.1,0,0,0-3.575,1.845,6.143,6.143,0,0,0-2.711-.621,5.679,5.679,0,0,0-5.153,3.006A8.892,8.892,0,0,0,6.507,5.026a14.994,14.994,0,0,1,17.5-1.593Zm-2.855,8.378-.025.028a4.562,4.562,0,0,1-3.405,1.441,4.707,4.707,0,0,1-2.827-.912l-.02-.015a3.428,3.428,0,0,1-1.431-2.716c0-2.009,1.919-3.643,4.278-3.643S22,7.628,22,9.637A3.285,3.285,0,0,1,21.152,11.811ZM1.335,16.359a14.96,14.96,0,0,1,3.68-9.84,6.622,6.622,0,0,1,1.434-.158,7.682,7.682,0,0,1,5.687,2.771,4.448,4.448,0,0,0-.029.505,4.639,4.639,0,0,0,1.336,3.219A13.439,13.439,0,0,0,9.2,23.067a14.827,14.827,0,0,0,1.9,7.365A15.048,15.048,0,0,1,1.335,16.359ZM13.12,31.029a12.9,12.9,0,0,1-2.582-7.963c0-3.866,1.51-7.4,3.966-9.354a6.081,6.081,0,0,0,3.218.9A5.962,5.962,0,0,0,21.744,13.1c2.917,1.711,4.849,5.64,4.849,9.963a13.98,13.98,0,0,1-.94,5.087A15.007,15.007,0,0,1,13.12,31.029Zm14.469-4.7a15.776,15.776,0,0,0,.34-3.26,14.821,14.821,0,0,0-1.661-6.943,10.506,10.506,0,0,0-3.651-4.055,4.52,4.52,0,0,0,.718-2.432A4.714,4.714,0,0,0,21.61,6.051a7.257,7.257,0,0,1,4.012-1.512,15,15,0,0,1,1.966,21.788Z" transform="translate(0 0)"/>
      </g>
      <text id="r" transform="translate(376 52.178)" font-size="56" font-family="ArialMT, Arial"><tspan x="0" y="0">r</tspan></text>
    </g>
  </g>
</svg>
